<?xml version="1.0" encoding="UTF-8" standalone="no"?>
<svg
   version="1.1"
   viewBox="-5 -10 89.184929 95.701508"
   id="svg32"
   sodipodi:docname="noun-butt-6845368.svg"
   width="89.184929"
   height="95.701508"
   inkscape:version="1.2.1 (9c6d41e410, 2022-07-14)"
   xmlns:inkscape="http://www.inkscape.org/namespaces/inkscape"
   xmlns:sodipodi="http://sodipodi.sourceforge.net/DTD/sodipodi-0.dtd"
   xmlns="http://www.w3.org/2000/svg"
   xmlns:svg="http://www.w3.org/2000/svg">
  <defs
     id="defs36" />
  <sodipodi:namedview
     id="namedview34"
     pagecolor="#ffffff"
     bordercolor="#000000"
     borderopacity="0.25"
     inkscape:showpageshadow="2"
     inkscape:pageopacity="0.0"
     inkscape:pagecheckerboard="0"
     inkscape:deskcolor="#d1d1d1"
     showgrid="false"
     inkscape:zoom="7.8"
     inkscape:cx="22.115385"
     inkscape:cy="54.615385"
     inkscape:window-width="3840"
     inkscape:window-height="2089"
     inkscape:window-x="-8"
     inkscape:window-y="897"
     inkscape:window-maximized="1"
     inkscape:current-layer="svg32" />
  <g
     id="g26"
     transform="translate(-10.901295,-12.782955)">
    <path
       d="m 22.223,2.8281 c -0.70703,-0.20312 -1.4141,0.30469 -1.6172,1.0117 -1.2109,5.25 -3.4336,9.6953 -5.8594,14.344 -7.2695,14.039 -15.555,30 -0.10156,77.172 0.20312,0.50391 0.70703,0.91016 1.2109,0.91016 0.10156,0 0.30469,0 0.40234,-0.10156 0.70703,-0.20312 1.1094,-1.0117 0.80859,-1.6172 -15.051,-46.16 -7.0703,-61.516 0,-75.152 2.5234,-4.8477 4.8477,-9.3945 6.1602,-14.949 C 23.33234,3.73917 22.93,3.0321 22.22297,2.829 Z"
       id="path20" />
    <path
       d="M 86.262,18.184 C 83.8362,13.5395 81.6175,9.0942 80.3011,3.84 80.09798,3.13297 79.39094,2.7306 78.6839,2.8283 c -0.70703,0.20312 -1.1094,0.91016 -1.0117,1.6172 1.3125,5.5547 3.6367,10.102 6.1602,14.949 7.0703,13.637 15.051,28.988 0,75.152 -0.20312,0.70703 0.20312,1.4141 0.80859,1.6172 0.10156,0 0.30469,0.10156 0.40234,0.10156 0.50391,0 1.1094,-0.30469 1.2109,-0.91016 15.562,-47.172 7.2812,-63.133 0.0078,-77.172 z"
       id="path22" />
    <path
       d="m 75.254,70.305 c -8.6875,0.80859 -15.758,-2.2227 -19.797,-8.5859 -2.2227,-3.4336 -3.4336,-7.5742 -3.5352,-12.02 v -1.5156 c 0.10156,-5.5547 1.8164,-11.516 4.9492,-17.172 0.40234,-0.60547 0.10156,-1.4141 -0.50391,-1.8164 -0.60547,-0.40234 -1.4141,-0.10156 -1.8164,0.50391 -1.8164,3.1328 -3.1328,6.4648 -4.0391,9.6953 -0.91016,-3.2305 -2.2227,-6.4648 -4.0391,-9.6953 -0.40234,-0.60547 -1.1094,-0.80859 -1.8164,-0.50391 -0.60547,0.40234 -0.80859,1.1094 -0.50391,1.8164 3.2305,5.6562 4.8477,11.617 4.9492,17.172 v 1.5156 c -0.10156,4.4453 -1.3125,8.5859 -3.5352,12.02 -4.0391,6.2617 -11.109,9.293 -19.797,8.5859 -0.70703,-0.10156 -1.3125,0.50391 -1.4141,1.2109 -0.10156,0.70703 0.50391,1.3125 1.2109,1.4141 1.0117,0.10156 1.918,0.10156 2.9297,0.10156 7.0703,0 13.031,-2.4258 17.172,-7.0703 1.918,5.8594 1.3125,15.859 0.70703,25.656 -0.10156,1.8164 -0.20312,3.6367 -0.30469,5.4531 0,0.70703 0.50391,1.3125 1.2109,1.4141 h 0.10156 c 0.70703,0 1.3125,-0.50391 1.3125,-1.2109 0.10156,-1.8164 0.20313,-3.6367 0.30469,-5.4531 0.79688,-11.316 1.5039,-22.125 -1.3242,-28.184 0.10156,-0.10156 0.20312,-0.30469 0.30469,-0.40234 1.1094,-1.7188 2.0195,-3.6367 2.625,-5.6562 0.60547,1.7188 1.3125,3.4336 2.2227,4.9492 -0.20312,0.10156 -0.40234,0.30469 -0.50391,0.50391 -3.1328,6.0625 -2.4258,17.07 -1.7188,28.789 0.10156,1.8164 0.20312,3.6367 0.30469,5.4531 0,0.70703 0.60547,1.2109 1.3125,1.2109 h 0.10156 c 0.70703,0 1.3125,-0.70703 1.2109,-1.4141 -0.10156,-1.8164 -0.20312,-3.6367 -0.30469,-5.4531 -0.70703,-10.402 -1.3125,-21.211 1.1094,-26.77 4.2422,5.3555 10.504,8.1836 18.184,8.1836 0.91016,0 1.918,0 2.9297,-0.10156 0.70703,-0.10156 1.2109,-0.70703 1.2109,-1.4141 -0.09766,-0.70703 -0.70312,-1.3125 -1.4102,-1.2109 z"
       id="path24" />
  </g>
</svg>
