<?xml version="1.0" standalone="no"?>
<!DOCTYPE svg PUBLIC "-//W3C//DTD SVG 20010904//EN"
 "http://www.w3.org/TR/2001/REC-SVG-20010904/DTD/svg10.dtd">
<svg version="1.0" xmlns="http://www.w3.org/2000/svg"
 width="768.000000pt" height="768.000000pt" viewBox="0 0 768.000000 768.000000"
 preserveAspectRatio="xMidYMid meet">
<metadata>
Created by potrace 1.14, written by Peter Selinger 2001-2017
</metadata>
<g transform="translate(0.000000,768.000000) scale(0.100000,-0.100000)"
fill="#000000" stroke="none">
<path d="M1474 7646 c-20 -20 -34 -36 -29 -36 4 0 2 -7 -5 -15 -7 -8 -10 -15
-7 -15 3 0 -5 -39 -19 -87 -14 -49 -27 -95 -29 -103 -17 -69 -109 -313 -160
-427 -61 -136 -288 -588 -296 -591 -5 -2 -9 -11 -9 -21 0 -9 -4 -21 -9 -26
-32 -33 -252 -507 -330 -710 -24 -60 -46 -119 -51 -130 -29 -73 -117 -364
-134 -445 -3 -14 -10 -43 -15 -65 -5 -22 -12 -51 -15 -65 -3 -14 -7 -36 -11
-50 -3 -14 -10 -54 -15 -90 -13 -76 -18 -106 -24 -140 -3 -14 -8 -47 -11 -75
-3 -27 -7 -68 -10 -90 -24 -187 -30 -318 -30 -630 0 -274 7 -453 20 -565 2
-19 6 -66 9 -105 3 -38 8 -86 10 -105 3 -19 8 -57 10 -85 3 -27 8 -61 10 -75
2 -14 8 -52 11 -85 12 -98 13 -103 20 -147 4 -24 9 -54 11 -68 3 -14 9 -47 14
-75 5 -27 11 -69 14 -93 3 -24 8 -47 10 -51 3 -4 7 -25 10 -47 2 -21 11 -73
20 -114 8 -41 17 -86 20 -100 7 -35 21 -102 41 -190 9 -41 18 -84 19 -95 2
-11 6 -27 9 -35 7 -20 53 -209 63 -260 3 -14 8 -34 11 -45 4 -11 8 -24 9 -30
1 -5 16 -64 34 -130 17 -66 33 -127 35 -135 2 -8 11 -40 20 -70 19 -65 18 -63
34 -120 21 -77 48 -167 116 -390 84 -270 75 -242 108 -338 19 -54 28 -68 62
-87 l40 -24 42 19 c30 13 46 29 57 54 13 32 12 40 -11 113 -14 43 -26 83 -27
88 -2 6 -6 17 -9 25 -6 16 -91 293 -100 325 -3 11 -22 74 -41 140 -20 66 -38
129 -41 140 -2 11 -20 76 -40 145 -19 69 -38 136 -41 150 -8 37 -12 55 -14 55
-1 0 -3 7 -5 15 -2 8 -16 65 -30 125 -15 61 -29 117 -32 125 -3 8 -7 24 -9 35
-2 11 -10 47 -18 80 -8 33 -12 63 -10 67 3 5 1 8 -4 8 -5 0 -9 6 -9 13 0 10
-13 76 -28 142 -16 73 -34 156 -39 181 -3 16 -7 43 -10 59 -4 17 -8 44 -11 60
-3 17 -7 41 -10 55 -6 30 -12 62 -20 110 -3 19 -8 42 -10 50 -2 8 -7 40 -10
70 -4 30 -10 73 -15 95 -4 22 -8 47 -8 55 0 8 -2 29 -5 45 -5 27 -9 53 -22
160 -7 59 -18 150 -20 180 -1 17 -6 71 -10 120 -5 50 -9 116 -9 147 -1 32 -4
58 -7 58 -7 0 -3 671 4 755 17 182 30 290 42 353 1 10 6 39 9 67 6 42 19 113
42 224 16 80 87 340 114 416 17 50 33 97 35 105 10 40 41 116 50 122 6 4 7 8
3 8 -4 0 1 20 12 45 11 25 16 45 12 45 -4 0 -2 4 3 8 12 9 35 52 38 72 5 31
314 663 341 699 5 7 11 20 12 29 2 8 6 18 11 21 12 9 231 457 238 486 1 6 13
35 27 65 20 46 47 115 53 140 1 3 7 18 14 34 15 36 70 207 77 238 3 12 6 28 7
33 2 6 6 15 10 22 4 7 10 41 14 76 5 60 4 66 -23 96 -21 23 -41 34 -71 38 -38
5 -45 2 -79 -31z"/>
<path d="M6073 7661 c-21 -14 -36 -33 -44 -60 -11 -36 -9 -52 16 -143 80 -300
171 -521 394 -958 319 -625 397 -795 509 -1100 45 -121 120 -380 138 -473 2
-12 7 -33 10 -47 6 -27 23 -112 29 -145 2 -11 6 -33 9 -50 3 -16 9 -52 12 -80
3 -27 8 -57 10 -65 3 -8 7 -37 10 -65 2 -27 6 -70 9 -95 34 -284 34 -811 0
-1145 -3 -27 -7 -72 -10 -100 -9 -103 -15 -162 -25 -225 -6 -36 -12 -85 -15
-110 -3 -25 -7 -56 -10 -70 -2 -14 -7 -43 -10 -65 -3 -23 -8 -52 -10 -65 -3
-14 -8 -41 -11 -60 -9 -61 -10 -67 -44 -250 -28 -150 -31 -164 -45 -225 -2
-11 -13 -60 -24 -110 -11 -49 -34 -148 -51 -220 -17 -71 -33 -137 -35 -145 -2
-8 -15 -60 -29 -115 -37 -140 -36 -137 -42 -164 -3 -14 -7 -28 -10 -33 -3 -5
-7 -21 -10 -36 -3 -15 -12 -49 -21 -77 -9 -27 -17 -54 -18 -60 -2 -19 -127
-440 -167 -560 -10 -33 -21 -67 -23 -75 -2 -8 -15 -50 -29 -92 -27 -83 -27
-130 1 -160 24 -27 73 -46 98 -39 59 17 66 33 174 376 17 55 38 120 46 145 16
48 184 635 189 660 1 8 8 33 14 55 6 22 14 52 17 68 13 69 16 81 24 96 5 9 9
19 9 24 0 7 5 27 17 82 2 11 11 47 19 81 8 34 17 72 20 85 2 13 7 31 10 39 3
8 7 26 10 40 2 14 18 93 35 175 16 83 33 166 36 185 3 19 11 55 16 80 11 47
22 116 22 138 0 6 3 12 6 12 3 0 6 12 7 28 0 15 4 47 8 72 5 25 10 54 11 65 2
11 8 56 14 100 18 120 20 137 27 201 43 389 49 498 48 859 0 171 -3 348 -6
395 -9 111 -24 265 -28 265 0 0 -3 23 -5 50 -4 48 -8 74 -20 140 -5 29 -19
106 -30 170 -3 17 -8 38 -11 47 -3 10 -7 29 -10 44 -16 88 -76 304 -121 434
-14 41 -26 80 -28 85 -1 6 -6 19 -10 30 -157 396 -153 387 -521 1115 -194 383
-295 631 -380 935 -10 33 -24 68 -33 78 -37 44 -93 55 -138 28z"/>
<path d="M4211 5559 c-17 -10 -40 -33 -52 -51 -42 -68 -179 -357 -214 -453
-20 -55 -39 -107 -42 -115 -4 -8 -7 -17 -8 -20 -16 -61 -49 -160 -54 -160 -4
0 -17 38 -31 86 -13 47 -27 87 -32 90 -4 3 -8 14 -8 25 0 11 -7 34 -16 50 -8
17 -17 38 -19 47 -1 10 -17 47 -34 85 -17 37 -31 70 -31 73 0 20 -151 302
-174 325 -66 65 -176 17 -176 -76 0 -14 27 -78 61 -143 159 -304 281 -665 315
-932 3 -25 7 -52 9 -60 18 -69 26 -437 13 -580 -21 -215 -90 -456 -188 -651
-32 -62 -130 -219 -153 -245 -7 -7 -23 -26 -36 -44 -37 -47 -150 -161 -201
-200 -25 -19 -47 -37 -50 -41 -25 -30 -280 -171 -351 -194 -13 -4 -26 -8 -29
-9 -248 -87 -393 -109 -707 -110 l-203 -1 -27 -28 c-22 -22 -28 -37 -28 -72 0
-59 31 -90 102 -103 51 -9 409 -8 468 1 17 3 50 8 75 11 123 18 217 39 340 78
84 26 86 27 210 87 107 51 172 87 200 108 8 6 47 35 85 64 39 29 72 55 75 58
16 17 163 155 158 147 -4 -5 -3 -16 2 -26 5 -9 11 -28 14 -41 10 -47 15 -71
20 -87 3 -9 8 -32 11 -49 3 -18 8 -48 11 -65 7 -39 12 -90 19 -173 2 -33 5
-60 6 -60 12 0 16 -632 5 -865 -14 -292 -17 -355 -21 -415 -3 -52 -11 -187
-20 -350 -1 -27 -6 -111 -11 -185 -11 -184 -9 -214 13 -244 37 -51 108 -59
153 -19 34 31 33 26 45 238 12 207 14 250 20 345 4 52 8 116 10 141 9 108 18
269 19 336 1 40 3 73 6 73 7 0 14 281 14 560 0 214 -7 389 -18 480 -15 121
-18 148 -21 176 -1 17 -5 39 -8 50 -4 10 -9 33 -12 49 -3 17 -12 55 -20 85 -9
30 -18 64 -20 75 -6 27 -37 108 -54 144 -5 9 15 50 51 107 32 51 58 95 58 98
0 3 13 33 29 68 42 88 81 189 81 206 0 12 3 12 15 2 8 -6 14 -15 13 -18 0 -4
1 -10 2 -14 1 -5 3 -11 5 -15 6 -24 68 -169 88 -208 11 -22 19 -42 18 -44 -2
-2 1 -7 6 -10 4 -3 15 -20 25 -38 13 -26 14 -32 3 -37 -23 -8 -105 -193 -120
-269 -2 -10 -7 -27 -10 -37 -3 -10 -8 -29 -11 -42 -23 -112 -35 -181 -40 -228
-3 -30 -7 -68 -10 -85 -12 -67 -26 -399 -24 -534 5 -288 10 -460 14 -531 6
-107 18 -315 22 -400 1 -36 5 -105 9 -155 8 -131 14 -224 21 -363 3 -68 7
-135 9 -149 6 -56 87 -97 147 -74 43 16 61 54 62 127 1 35 -1 64 -4 64 -3 0
-6 28 -6 63 -2 70 -13 284 -19 367 -3 30 -7 100 -10 155 -4 55 -8 125 -10 155
-27 416 -27 1140 0 1277 2 11 6 44 10 74 4 30 13 86 22 124 8 39 16 78 18 88
11 50 57 187 63 187 4 0 23 -19 42 -41 88 -104 308 -299 338 -299 6 0 12 -4
14 -8 11 -29 258 -148 404 -195 153 -50 191 -60 284 -72 19 -3 46 -7 60 -10
74 -14 132 -17 298 -19 209 -3 283 4 310 31 59 56 55 127 -11 168 -26 17 -42
19 -82 14 -56 -7 -386 -3 -425 5 -14 3 -43 7 -65 10 -50 6 -195 35 -215 43 -8
3 -23 8 -33 9 -35 7 -194 72 -262 108 -72 37 -78 40 -156 91 -91 59 -230 187
-304 280 -22 28 -42 52 -45 55 -33 30 -210 351 -210 379 0 6 -4 19 -10 29 -42
75 -101 329 -116 504 -13 147 -7 441 11 528 3 14 8 42 10 63 4 37 21 132 30
172 3 17 12 50 49 195 38 147 135 388 238 586 65 126 73 156 54 193 -32 62
-92 82 -145 50z"/>
</g>
</svg>
